HIERARCHY
ROOT Hips
{
    OFFSET 0.000000 0.000000 0.000000
    CHANNELS 6 Xposition Yposition Zposition Zrotation Xrotation Yrotation
    JOINT Spine
    {
        OFFSET -0.000000 7.750029 0.000000
        CHANNELS 3 Zrotation Xrotation Yrotation
        JOINT Spine1
        {
            OFFSET -0.000000 19.767460 0.000000
            CHANNELS 3 Zrotation Xrotation Yrotation
            JOINT Neck
            {
                OFFSET -0.000000 19.686279 1.789662
                CHANNELS 3 Zrotation Xrotation Yrotation
                JOINT Head
                {
                    OFFSET -0.000000 13.231757 -1.890251
                    CHANNELS 3 Zrotation Xrotation Yrotation
                    End Site
                    {
                        OFFSET -0.000000 23.628138 0.000000
                    }
                }
            }
            JOINT LeftShoulder
            {
                OFFSET 3.736819 16.910755 -0.280982
                CHANNELS 3 Zrotation Xrotation Yrotation
                JOINT LeftArm
                {
                    OFFSET 13.626117 0.000000 0.000000
                    CHANNELS 3 Zrotation Xrotation Yrotation
                    JOINT LeftForeArm
                    {
                        OFFSET 31.364786 0.000000 0.000000
                        CHANNELS 3 Zrotation Xrotation Yrotation
                        JOINT LeftHand
                        {
                            OFFSET 23.389509 0.000000 0.000000
                            CHANNELS 3 Zrotation Xrotation Yrotation
                            End Site
                            {
                                OFFSET 14.176883 0.000000 0.000000
                            }
                        }
                    }
                }
            }
            JOINT RightShoulder
            {
                OFFSET -3.821718 16.910755 -0.280982
                CHANNELS 3 Zrotation Xrotation Yrotation
                JOINT RightArm
                {
                    OFFSET -13.626117 0.000000 0.000000
                    CHANNELS 3 Zrotation Xrotation Yrotation
                    JOINT RightForeArm
                    {
                        OFFSET -31.364786 0.000000 0.000000
                        CHANNELS 3 Zrotation Xrotation Yrotation
                        JOINT RightHand
                        {
                            OFFSET -23.389509 0.000000 0.000000
                            CHANNELS 3 Zrotation Xrotation Yrotation
                            End Site
                            {
                                OFFSET -14.176883 0.000000 0.000000
                            }
                        }
                    }
                }
            }
        }
    }
    JOINT LeftUpLeg
    {
        OFFSET 9.451255 0.000000 0.000000
        CHANNELS 3 Zrotation Xrotation Yrotation
        JOINT LeftLeg
        {
            OFFSET -0.000000 -41.898624 0.000000
            CHANNELS 3 Zrotation Xrotation Yrotation
            JOINT LeftFoot
            {
                OFFSET -0.000000 -38.481331 0.000000
                CHANNELS 3 Zrotation Xrotation Yrotation
                JOINT LeftToeBase
                {
                    OFFSET -0.000000 -6.143315 14.176883
                    CHANNELS 3 Zrotation Xrotation Yrotation
                    End Site
                    {
                        OFFSET -0.000000 0.000000 3.780502
                    }
                }
            }
        }
    }
    JOINT RightUpLeg
    {
        OFFSET -9.451255 0.000000 0.000000
        CHANNELS 3 Zrotation Xrotation Yrotation
        JOINT RightLeg
        {
            OFFSET -0.000000 -41.898624 0.000000
            CHANNELS 3 Zrotation Xrotation Yrotation
            JOINT RightFoot
            {
                OFFSET -0.000000 -38.481331 0.000000
                CHANNELS 3 Zrotation Xrotation Yrotation
                JOINT RightToeBase
                {
                    OFFSET -0.000000 -6.143315 14.176883
                    CHANNELS 3 Zrotation Xrotation Yrotation
                    End Site
                    {
                        OFFSET -0.000000 0.000000 3.780502
                    }
                }
            }
        }
    }
}
MOTION
Frames:    5
Frame Time:    0.010000
13.729833    89.022835    10.555831    1.209328    -1.926463    164.111069    0.220755    -2.008338    1.119418    2.420342    2.771191    1.056979    -10.593568    31.841793    16.014536    -3.800539    -34.126152    13.373696    11.649575    -5.781704    -9.372007    -49.226868    51.064148    -35.769169    0.271822    -42.285179    -100.090752    -29.662632    -39.453941    -12.856659    -10.681477    1.099470    8.340115    33.900444    50.229706    48.483593    -5.050721    -22.489582    87.047798    32.318558    -17.813347    0.636974    9.579664    -9.811503    7.148107    -5.863977    32.075100    7.015841    -1.082885    -14.982512    11.534142    0.000000    0.000000    0.000000    -4.017550    -7.568799    -11.355216    -1.125765    22.389051    6.503228    7.129970    -17.224838    -10.002118    0.000000    0.000000    0.000000    
13.856104    88.800591    10.664052    0.832755    -1.495421    163.356018    -0.385407    -1.848750    0.832940    2.718931    3.467305    0.756854    -11.301564    32.054447    16.642815    -4.194379    -35.225327    13.682788    11.356543    -5.916781    -9.647366    -51.788761    50.397175    -32.650902    0.534553    -42.734306    -99.031929    -29.361246    -39.719555    -12.853740    -10.665050    1.692154    8.255312    36.061436    49.020149    47.143650    -4.333407    -21.873194    87.589760    30.903578    -18.085602    -0.445353    9.256839    -9.359883    6.866280    -6.621079    32.101433    7.777710    -0.334863    -15.439171    12.396443    0.000000    0.000000    0.000000    -4.127408    -7.671647    -11.664735    -1.831498    22.879036    6.138083    7.174223    -18.252777    -8.488108    0.000000    0.000000    0.000000    
14.001081    88.601151    10.803027    0.600806    -1.189832    162.714935    -0.761788    -1.656885    0.519909    2.907988    4.029951    0.428632    -11.622831    32.146072    17.224699    -5.238324    -35.961533    13.736385    11.300991    -5.590735    -9.422363    -52.020859    51.740974    -31.757687    2.431149    -45.598785    -96.906143    -28.990997    -40.978142    -13.881083    -10.765744    2.477045    7.698112    36.700371    47.997578    47.611786    -2.542353    -21.172476    87.913689    27.492268    -19.239195    -1.584413    9.091253    -9.068725    6.818803    -7.119080    32.318073    7.315082    -0.022967    -16.284597    14.071726    0.000000    0.000000    0.000000    -4.184318    -7.732241    -11.228494    -2.172363    23.229410    6.473025    7.221639    -19.218477    -8.281357    0.000000    0.000000    0.000000    
14.155740    88.457176    10.921267    0.474022    -0.918866    162.279160    -1.079315    -1.541570    0.139993    3.135218    4.629353    0.027679    -12.125619    31.879631    17.714928    -5.494820    -36.075104    14.081370    11.155754    -5.939581    -9.452963    -54.276871    51.494045    -29.140705    2.807486    -45.649075    -95.747932    -25.103338    -41.326202    -12.770930    -10.585022    1.929787    8.065369    39.267166    48.378147    45.204979    -3.318590    -22.076441    87.678215    27.748196    -19.315054    -0.938276    8.975540    -8.724535    6.636267    -7.307077    32.200638    7.785915    -0.183801    -16.770952    14.289523    0.000000    0.000000    0.000000    -4.239291    -7.669995    -10.270356    -2.161344    23.417645    7.109171    7.029971    -19.900665    -9.068695    0.000000    0.000000    0.000000    
14.311978    88.387894    11.072291    0.405917    -0.896236    161.990326    -1.130174    -1.492470    -0.206764    3.149487    4.929283    -0.327539    -12.227574    31.784142    18.069958    -6.234726    -36.018536    14.121980    11.079714    -5.933895    -9.284892    -55.787712    51.269958    -27.511000    4.010255    -45.776752    -93.806068    -21.272142    -41.127499    -11.244997    -10.554890    1.988944    7.936107    40.854446    48.586731    44.310181    -2.920555    -22.729450    87.561279    25.991501    -20.466314    -1.565495    8.969381    -8.616339    6.539419    -7.395454    31.811039    10.266299    -0.565596    -16.848701    12.410337    0.000000    0.000000    0.000000    -4.214803    -7.884840    -8.978333    -1.902031    23.631552    7.618525    7.247383    -20.426882    -10.425471    0.000000    0.000000    0.000000    
